<?xml version="1.0" standalone="no"?>
<!DOCTYPE svg PUBLIC "-//W3C//DTD SVG 20010904//EN"
 "http://www.w3.org/TR/2001/REC-SVG-20010904/DTD/svg10.dtd">
<svg version="1.0" xmlns="http://www.w3.org/2000/svg"
 width="1601.000000pt" height="1601.000000pt" viewBox="0 0 1601.000000 1601.000000"
 preserveAspectRatio="xMidYMid meet">
<metadata>
Created by potrace 1.11, written by Peter Selinger 2001-2013
</metadata>
<g transform="translate(0.000000,1601.000000) scale(0.100000,-0.100000)"
fill="#000000" stroke="none">
<path d="M7987 14657 c-9 -17 -30 -57 -48 -87 -85 -150 -289 -509 -306 -540
-34 -60 -205 -363 -225 -397 -10 -18 -28 -50 -39 -70 -12 -21 -48 -85 -81
-143 -32 -58 -63 -112 -69 -120 -5 -8 -66 -116 -136 -240 -69 -124 -135 -241
-146 -260 -11 -19 -48 -84 -82 -145 -34 -60 -73 -130 -87 -155 -92 -161 -138
-243 -138 -248 0 -3 -6 -13 -14 -21 -7 -9 -33 -52 -56 -96 -24 -44 -46 -84
-50 -90 -5 -5 -19 -30 -32 -55 -14 -25 -35 -63 -48 -85 -36 -63 -105 -186
-130 -230 -12 -22 -65 -116 -118 -210 l-96 -169 -17 39 c-10 22 -28 63 -40 90
-12 28 -32 73 -44 100 -12 28 -82 187 -155 355 -73 168 -140 323 -150 345 -10
22 -136 310 -280 640 -144 330 -271 620 -282 645 -11 25 -27 61 -35 80 -13 31
-134 308 -168 385 -7 17 -27 60 -44 98 -17 37 -31 70 -31 73 0 4 -16 40 -35
81 -19 41 -35 77 -35 79 0 4 -57 136 -99 229 -10 22 -27 59 -37 83 -9 24 -21
45 -25 47 -4 3 -35 -32 -68 -78 -34 -45 -71 -93 -81 -107 -11 -14 -47 -61 -80
-105 -33 -44 -68 -91 -79 -105 -10 -14 -130 -173 -265 -355 -136 -181 -259
-345 -274 -364 -15 -18 -31 -41 -36 -50 -5 -9 -12 -18 -16 -21 -3 -3 -17 -21
-30 -40 -13 -19 -27 -37 -30 -40 -4 -3 -31 -39 -61 -80 -30 -41 -59 -82 -66
-90 -13 -16 -147 -194 -175 -232 -33 -46 -947 -1263 -955 -1273 -4 -5 -114
-152 -243 -325 -129 -173 -240 -321 -247 -330 -7 -8 -125 -166 -263 -350 -138
-184 -256 -342 -263 -350 -6 -8 -50 -67 -97 -130 -46 -63 -87 -117 -90 -120
-3 -3 -70 -93 -150 -200 -79 -107 -147 -197 -150 -200 -3 -3 -17 -21 -30 -40
-13 -19 -27 -37 -30 -40 -3 -3 -70 -93 -150 -200 -80 -107 -150 -202 -157
-210 -34 -42 -401 -535 -400 -536 1 -1 27 -5 57 -9 30 -3 66 -8 80 -10 33 -5
92 -13 159 -20 30 -4 61 -8 70 -10 9 -1 41 -6 71 -10 30 -3 66 -8 80 -10 14
-3 50 -7 80 -10 30 -3 66 -7 80 -10 27 -4 152 -20 240 -31 73 -8 99 -12 135
-18 17 -2 59 -8 95 -11 36 -4 72 -9 81 -10 9 -2 40 -6 70 -10 30 -4 63 -8 74
-10 11 -1 49 -6 85 -10 36 -4 72 -9 81 -10 9 -2 40 -6 70 -10 99 -11 134 -16
159 -20 14 -2 50 -7 80 -11 30 -4 64 -8 75 -9 11 -2 45 -6 75 -10 30 -3 66 -8
80 -10 14 -2 50 -7 80 -10 30 -3 66 -8 80 -10 14 -2 117 -16 230 -30 113 -14
216 -28 230 -30 14 -2 48 -7 75 -10 28 -3 61 -7 75 -10 14 -2 50 -7 80 -10 30
-3 64 -7 75 -9 11 -2 51 -7 89 -10 38 -4 72 -9 75 -10 3 -2 33 -7 66 -10 33
-4 71 -9 85 -11 14 -2 50 -6 81 -10 31 -3 65 -7 75 -9 11 -2 46 -7 79 -10 33
-4 71 -9 85 -11 43 -6 124 -17 156 -20 18 -2 70 -9 115 -15 46 -7 95 -13 109
-15 46 -6 145 -18 157 -18 7 0 11 -3 9 -6 -2 -3 -43 -76 -91 -161 -48 -85 -99
-175 -113 -200 -14 -25 -61 -107 -104 -182 -43 -75 -78 -142 -78 -148 0 -5 -4
-10 -10 -10 -5 0 -10 -4 -10 -9 0 -5 -61 -116 -135 -246 -74 -130 -135 -238
-135 -240 0 -1 -28 -51 -63 -111 -35 -60 -79 -138 -99 -174 -20 -36 -79 -141
-132 -234 -53 -93 -96 -173 -96 -177 0 -5 -4 -9 -10 -9 -5 0 -10 -5 -10 -11 0
-6 -25 -54 -55 -107 -31 -54 -61 -106 -67 -117 -6 -11 -38 -67 -71 -125 -33
-58 -71 -125 -85 -150 -14 -25 -42 -75 -63 -112 -22 -36 -39 -69 -39 -73 0 -3
-5 -11 -11 -18 -8 -9 -260 -451 -385 -675 -38 -69 -76 -136 -165 -293 -49 -87
-89 -160 -89 -163 0 -3 914 -6 2030 -6 l2031 0 -30 -52 c-95 -171 -142 -255
-150 -268 -9 -13 -53 -91 -171 -300 -20 -36 -46 -82 -58 -102 -12 -21 -38 -68
-58 -105 -20 -37 -45 -79 -54 -93 -10 -14 -29 -47 -44 -75 -15 -27 -37 -68
-49 -90 -13 -22 -38 -67 -55 -99 -18 -33 -36 -64 -41 -70 -4 -6 -21 -33 -36
-61 -59 -109 -258 -461 -265 -470 -4 -5 -22 -37 -40 -70 -18 -33 -119 -211
-223 -395 -104 -184 -201 -355 -215 -380 -38 -70 -132 -233 -143 -250 -5 -8
-16 -28 -24 -45 -9 -16 -20 -37 -25 -45 -10 -16 -92 -159 -143 -250 -16 -30
-39 -71 -50 -90 -11 -19 -31 -55 -45 -80 -14 -25 -34 -58 -44 -75 -10 -16 -18
-33 -18 -37 0 -5 1681 -8 3736 -8 3276 0 3735 2 3731 15 -6 14 -158 285 -177
315 -5 8 -23 40 -40 70 -17 30 -35 62 -40 70 -5 8 -45 78 -88 155 -43 77 -137
244 -209 370 -72 127 -143 253 -159 280 -15 28 -35 64 -45 80 -10 17 -27 47
-38 67 -11 20 -77 137 -147 260 -70 123 -138 243 -152 268 -14 25 -72 128
-130 230 -58 102 -115 204 -128 226 -13 23 -66 117 -119 209 -52 92 -95 172
-95 176 0 5 -4 9 -10 9 -5 0 -10 5 -10 10 0 6 -56 109 -123 228 -142 248 -207
363 -243 427 l-25 45 2031 0 c1116 0 2030 3 2030 6 0 4 -15 32 -32 63 -18 31
-42 72 -53 92 -31 56 -295 522 -305 539 -5 8 -28 49 -51 90 -23 41 -116 205
-207 365 -90 159 -176 313 -191 340 -15 28 -132 235 -260 460 -215 377 -267
470 -371 655 -20 36 -131 232 -246 435 -116 204 -213 377 -217 385 -4 8 -17
31 -28 50 -57 95 -149 261 -149 270 0 5 12 11 28 11 15 1 36 3 47 4 72 10 123
17 141 20 12 2 48 6 80 10 33 4 70 9 84 11 14 2 50 6 80 10 30 3 66 7 80 10
14 2 45 6 70 9 25 3 61 8 80 11 19 3 53 7 75 10 44 5 107 13 145 19 14 2 54 7
90 10 36 4 72 9 81 10 9 2 40 6 70 10 30 3 65 8 79 10 14 2 48 7 75 10 28 3
61 7 75 10 14 2 48 6 75 9 62 8 132 17 165 21 14 2 52 7 85 10 33 4 67 8 75
10 8 3 40 7 70 10 30 3 66 8 80 10 14 2 50 7 80 10 30 3 66 8 80 10 14 2 63 9
110 15 47 6 94 13 105 14 11 2 49 6 85 10 36 4 76 9 90 11 30 5 96 13 148 20
102 12 210 26 237 30 17 2 138 18 270 35 132 17 254 33 270 35 17 3 50 7 75 9
49 6 72 9 235 30 61 8 137 18 170 22 33 3 67 8 75 9 9 2 59 9 113 15 l97 13
-23 31 c-13 17 -304 405 -646 861 -342 457 -637 850 -656 875 -19 25 -107 142
-195 260 -88 118 -166 222 -173 230 -7 8 -50 67 -97 130 -46 63 -87 117 -90
120 -3 3 -17 21 -30 40 -14 19 -30 42 -37 50 -6 8 -57 76 -113 150 -55 74
-106 142 -113 150 -7 8 -36 48 -65 88 -29 40 -59 80 -67 90 -8 9 -282 375
-609 812 -327 437 -599 800 -603 805 -5 6 -22 28 -38 50 -17 22 -36 46 -42 53
-7 7 -13 17 -13 21 0 4 -8 16 -18 27 -10 10 -31 37 -47 59 -17 22 -38 49 -47
59 -10 11 -18 23 -18 27 0 4 -6 14 -13 21 -7 7 -26 31 -42 53 -17 22 -34 44
-38 50 -4 5 -41 55 -82 110 -41 55 -78 105 -83 110 -4 6 -43 57 -86 115 -42
58 -84 113 -92 123 -8 9 -40 52 -71 95 -32 42 -61 82 -65 87 -28 33 -158 211
-162 220 -8 22 -28 -18 -146 -290 -67 -154 -127 -293 -135 -310 -7 -16 -55
-124 -105 -240 -51 -115 -100 -228 -110 -250 -10 -22 -39 -89 -65 -150 -26
-60 -56 -130 -67 -155 -11 -25 -26 -58 -33 -75 -8 -16 -101 -230 -208 -475
-107 -245 -202 -461 -210 -480 -9 -19 -25 -57 -37 -85 -13 -27 -54 -122 -92
-210 -38 -88 -77 -176 -85 -195 -9 -19 -17 -37 -18 -40 -4 -13 -26 -64 -44
-103 -10 -23 -43 -96 -71 -162 -29 -66 -55 -123 -59 -127 -3 -4 -33 41 -66 99
-72 129 -103 184 -185 328 -34 61 -75 133 -90 160 -15 28 -42 75 -60 105 -18
30 -45 78 -60 105 -15 28 -82 146 -149 264 -66 118 -121 218 -121 223 0 4 -4
8 -10 8 -5 0 -10 5 -10 10 0 6 -36 74 -81 152 -44 77 -91 159 -103 182 -12 22
-62 111 -111 196 -48 85 -97 171 -108 190 -10 19 -37 65 -58 102 -22 36 -39
71 -39 77 0 6 -4 11 -10 11 -5 0 -10 4 -10 9 0 5 -43 84 -95 175 -52 92 -95
169 -95 171 0 4 -50 91 -90 155 -5 8 -18 33 -30 54 -12 21 -67 120 -124 220
-56 100 -114 201 -127 226 -13 25 -27 47 -31 48 -5 2 -8 7 -8 12 0 4 -10 26
-23 49 l-23 41 -17 -33z"/>
</g>
</svg>
